<svg width="174" height="138" viewBox="0 0 174 138" fill="none" xmlns="http://www.w3.org/2000/svg">
<g id="circle">
<path id="Oval" d="M69.1593 69.0165C69.1593 87.8709 65.3092 104.916 59.1079 117.228C52.8921 129.57 44.3967 137.016 35.1593 137.016C25.9219 137.016 17.4265 129.57 11.2107 117.228C5.0094 104.916 1.1593 87.8709 1.1593 69.0165C1.1593 50.162 5.0094 33.1173 11.2107 20.8046C17.4265 8.46301 25.9219 1.01648 35.1593 1.01648C44.3967 1.01648 52.8921 8.46301 59.1079 20.8046C65.3092 33.1173 69.1593 50.162 69.1593 69.0165Z" stroke="#44FFA1"/>
<path id="Oval Copy" d="M95.1593 69.0165C95.1593 87.8709 91.3092 104.916 85.1079 117.228C78.8921 129.57 70.3967 137.016 61.1593 137.016C51.9219 137.016 43.4265 129.57 37.2107 117.228C31.0094 104.916 27.1593 87.8709 27.1593 69.0165C27.1593 50.162 31.0094 33.1173 37.2107 20.8046C43.4265 8.46301 51.9219 1.01648 61.1593 1.01648C70.3967 1.01648 78.8921 8.46301 85.1079 20.8046C91.3092 33.1173 95.1593 50.162 95.1593 69.0165Z" stroke="#44FFA1"/>
<path id="Oval Copy 2" opacity="0.75" d="M120.159 69.0165C120.159 87.8719 116.365 104.918 110.253 117.231C104.126 129.575 95.7548 137.016 86.6593 137.016C77.5638 137.016 69.1926 129.575 63.0655 117.231C56.9538 104.918 53.1593 87.8719 53.1593 69.0165C53.1593 50.161 56.9538 33.1153 63.0655 20.802C69.1926 8.45768 77.5638 1.01648 86.6593 1.01648C95.7548 1.01648 104.126 8.45768 110.253 20.802C116.365 33.1153 120.159 50.161 120.159 69.0165Z" stroke="#44FFA1"/>
<path id="Oval Copy 3" opacity="0.5" d="M147.159 69.0165C147.159 87.8709 143.309 104.916 137.108 117.228C130.892 129.57 122.397 137.016 113.159 137.016C103.922 137.016 95.4265 129.57 89.2107 117.228C83.0094 104.916 79.1593 87.8709 79.1593 69.0165C79.1593 50.162 83.0094 33.1173 89.2107 20.8046C95.4265 8.46301 103.922 1.01648 113.159 1.01648C122.397 1.01648 130.892 8.46301 137.108 20.8046C143.309 33.1173 147.159 50.162 147.159 69.0165Z" stroke="#44FFA1"/>
<path id="Oval Copy 4" opacity="0.25" d="M173.159 69.0165C173.159 87.8719 169.365 104.918 163.253 117.231C157.126 129.575 148.755 137.016 139.659 137.016C130.564 137.016 122.193 129.575 116.066 117.231C109.954 104.918 106.159 87.8719 106.159 69.0165C106.159 50.161 109.954 33.1153 116.066 20.802C122.193 8.45768 130.564 1.01648 139.659 1.01648C148.755 1.01648 157.126 8.45768 163.253 20.802C169.365 33.1153 173.159 50.161 173.159 69.0165Z" stroke="#44FFA1"/>
</g>
</svg>
